<?xml version="1.0" encoding="UTF-8" standalone="no"?><!DOCTYPE svg PUBLIC "-//W3C//DTD SVG 1.1//EN" "http://www.w3.org/Graphics/SVG/1.1/DTD/svg11.dtd"><svg width="100%" height="100%" viewBox="0 0 209 209" version="1.1" xmlns="http://www.w3.org/2000/svg" xmlns:xlink="http://www.w3.org/1999/xlink" xml:space="preserve" xmlns:serif="http://www.serif.com/" style="fill-rule:evenodd;clip-rule:evenodd;stroke-linecap:round;stroke-linejoin:round;stroke-miterlimit:1.5;"><rect x="41.667" y="100" width="125" height="8.333" style="fill:#ebebeb;stroke:#ebebeb;stroke-width:4.17px;"/><path d="M100,41.667l-0,125l8.333,-0l0,-125l-8.333,-0Z" style="fill:#ebebeb;stroke:#ebebeb;stroke-width:4.17px;"/><path d="M104.167,0c-57.491,0 -104.167,46.676 -104.167,104.167c-0,57.491 46.676,104.166 104.167,104.166c57.491,0 104.166,-46.675 104.166,-104.166c0,-57.491 -46.675,-104.167 -104.166,-104.167Zm-0,8.013c53.068,-0 96.154,43.085 96.154,96.154c-0,53.068 -43.086,96.154 -96.154,96.154c-53.069,-0 -96.154,-43.086 -96.154,-96.154c-0,-53.069 43.085,-96.154 96.154,-96.154Z" style="fill:#ebebeb;"/></svg>